<?xml version="1.0" encoding="UTF-8" standalone="no"?>
<!DOCTYPE svg PUBLIC "-//W3C//DTD SVG 1.1//EN"
 "http://www.w3.org/Graphics/SVG/1.1/DTD/svg11.dtd">
<!-- Generated by graphviz version 2.43.0 (0)
 -->
<!-- Title: drivers/potentiometer Pages: 1 -->
<svg width="713pt" height="180pt"
 viewBox="0.00 0.00 713.26 180.00" xmlns="http://www.w3.org/2000/svg" xmlns:xlink="http://www.w3.org/1999/xlink">
<g id="graph0" class="graph" transform="scale(1 1) rotate(0) translate(4 176)">
<title>drivers/potentiometer</title>
<g id="clust1" class="cluster">
<title>clusterdir_14bc92f4b96c8519b376567118ac28b3</title>
<g id="a_clust1"><a xlink:href="dir_14bc92f4b96c8519b376567118ac28b3.html" target="_top" xlink:title="drivers">
<polygon fill="#edf0f7" stroke="#404040" stroke-dasharray="5,2" points="8,-39 8,-164 550,-164 550,-39 8,-39"/>
<text text-anchor="middle" x="279" y="-152" font-family="Helvetica,sans-Serif" font-size="10.00">drivers</text>
</a>
</g>
</g>
<g id="clust2" class="cluster">
<title>clusterdir_e419f953571bbde52e1b066c5b259aad</title>
<g id="a_clust2"><a xlink:href="dir_e419f953571bbde52e1b066c5b259aad.html" target="_top">
<polygon fill="#edf0f7" stroke="#404040" stroke-width="2" points="16,-47 16,-137 474,-137 474,-47 16,-47"/>
</a>
</g>
</g>
<!-- dir_481058711dd13ded877a88795a4a55f2 -->
<g id="node1" class="node">
<title>dir_481058711dd13ded877a88795a4a55f2</title>
<g id="a_node1"><a xlink:href="dir_481058711dd13ded877a88795a4a55f2.html" target="_top" xlink:title="platform">
<polygon fill="#a2b4d6" stroke="red" points="541.5,-74 482.5,-74 482.5,-55 541.5,-55 541.5,-74"/>
<text text-anchor="middle" x="512" y="-62" font-family="Helvetica,sans-Serif" font-size="10.00">platform</text>
</a>
</g>
</g>
<!-- dir_e419f953571bbde52e1b066c5b259aad -->
<g id="node2" class="node">
<title>dir_e419f953571bbde52e1b066c5b259aad</title>
<text text-anchor="middle" x="423" y="-117" font-family="Helvetica,sans-Serif" font-size="10.00">potentiometer</text>
</g>
<!-- dir_6787bb17f0a8956df0cac710764aa7be -->
<g id="node3" class="node">
<title>dir_6787bb17f0a8956df0cac710764aa7be</title>
<g id="a_node3"><a xlink:href="dir_6787bb17f0a8956df0cac710764aa7be.html" target="_top" xlink:title="ad5110">
<polygon fill="#a2b4d6" stroke="#404040" points="361.5,-129 308.5,-129 308.5,-110 361.5,-110 361.5,-129"/>
<text text-anchor="middle" x="335" y="-117" font-family="Helvetica,sans-Serif" font-size="10.00">ad5110</text>
</a>
</g>
</g>
<!-- dir_d44c64559bbebec7f509842c48db8b23 -->
<g id="node9" class="node">
<title>dir_d44c64559bbebec7f509842c48db8b23</title>
<g id="a_node9"><a xlink:href="dir_d44c64559bbebec7f509842c48db8b23.html" target="_top" xlink:title="include">
<polygon fill="#edf0f7" stroke="#404040" points="653,-19 601,-19 601,0 653,0 653,-19"/>
<text text-anchor="middle" x="627" y="-7" font-family="Helvetica,sans-Serif" font-size="10.00">include</text>
</a>
</g>
</g>
<!-- dir_6787bb17f0a8956df0cac710764aa7be&#45;&gt;dir_d44c64559bbebec7f509842c48db8b23 -->
<g id="edge1" class="edge">
<title>dir_6787bb17f0a8956df0cac710764aa7be&#45;&gt;dir_d44c64559bbebec7f509842c48db8b23</title>
<g id="a_edge1"><a xlink:href="dir_000019_000628.html" target="_top">
<path fill="none" stroke="#63b8ff" d="M361.66,-111.82C364.8,-111.15 367.96,-110.52 371,-110 443.04,-97.58 649.22,-128.45 698,-74 708.38,-62.41 706.71,-51.89 698,-39 690.06,-27.25 676.39,-20.34 663.15,-16.29"/>
<polygon fill="#63b8ff" stroke="#63b8ff" points="663.77,-12.83 653.21,-13.7 662.01,-19.61 663.77,-12.83"/>
</a>
</g>
<g id="a_edge1&#45;headlabel"><a xlink:href="dir_000019_000628.html" target="_top" xlink:title="2">
<text text-anchor="middle" x="667.97" y="-8.49" font-family="Helvetica,sans-Serif" font-size="10.00" fill="#63b8ff">2</text>
</a>
</g>
</g>
<!-- dir_eadfd3f234712ea8bc5a9d9c6d7db410 -->
<g id="node4" class="node">
<title>dir_eadfd3f234712ea8bc5a9d9c6d7db410</title>
<g id="a_node4"><a xlink:href="dir_eadfd3f234712ea8bc5a9d9c6d7db410.html" target="_top" xlink:title="ad514x">
<polygon fill="#a2b4d6" stroke="#404040" points="148.5,-129 95.5,-129 95.5,-110 148.5,-110 148.5,-129"/>
<text text-anchor="middle" x="122" y="-117" font-family="Helvetica,sans-Serif" font-size="10.00">ad514x</text>
</a>
</g>
</g>
<!-- dir_700cf27e9c768aef409550a15111b950 -->
<g id="node8" class="node">
<title>dir_700cf27e9c768aef409550a15111b950</title>
<g id="a_node8"><a xlink:href="dir_700cf27e9c768aef409550a15111b950.html" target="_top" xlink:title="common">
<polygon fill="#a2b4d6" stroke="#404040" points="151.5,-74 92.5,-74 92.5,-55 151.5,-55 151.5,-74"/>
<text text-anchor="middle" x="122" y="-62" font-family="Helvetica,sans-Serif" font-size="10.00">common</text>
</a>
</g>
</g>
<!-- dir_eadfd3f234712ea8bc5a9d9c6d7db410&#45;&gt;dir_700cf27e9c768aef409550a15111b950 -->
<g id="edge2" class="edge">
<title>dir_eadfd3f234712ea8bc5a9d9c6d7db410&#45;&gt;dir_700cf27e9c768aef409550a15111b950</title>
<g id="a_edge2"><a xlink:href="dir_000020_000324.html" target="_top">
<path fill="none" stroke="#63b8ff" d="M122,-109.75C122,-102.8 122,-92.85 122,-84.13"/>
<polygon fill="#63b8ff" stroke="#63b8ff" points="125.5,-84.09 122,-74.09 118.5,-84.09 125.5,-84.09"/>
</a>
</g>
<g id="a_edge2&#45;headlabel"><a xlink:href="dir_000020_000324.html" target="_top" xlink:title="4">
<text text-anchor="middle" x="128.34" y="-85.18" font-family="Helvetica,sans-Serif" font-size="10.00" fill="#63b8ff">4</text>
</a>
</g>
</g>
<!-- dir_eadfd3f234712ea8bc5a9d9c6d7db410&#45;&gt;dir_d44c64559bbebec7f509842c48db8b23 -->
<g id="edge3" class="edge">
<title>dir_eadfd3f234712ea8bc5a9d9c6d7db410&#45;&gt;dir_d44c64559bbebec7f509842c48db8b23</title>
<g id="a_edge3"><a xlink:href="dir_000020_000628.html" target="_top">
<path fill="none" stroke="#63b8ff" d="M148.65,-111.75C151.79,-111.09 154.96,-110.49 158,-110 251.82,-95.04 502.03,-122.02 584,-74 601.36,-63.83 613.21,-43.54 620,-28.62"/>
<polygon fill="#63b8ff" stroke="#63b8ff" points="623.26,-29.91 623.91,-19.34 616.8,-27.2 623.26,-29.91"/>
</a>
</g>
<g id="a_edge3&#45;headlabel"><a xlink:href="dir_000020_000628.html" target="_top" xlink:title="18">
<text text-anchor="middle" x="624.48" y="-31.83" font-family="Helvetica,sans-Serif" font-size="10.00" fill="#63b8ff">18</text>
</a>
</g>
</g>
<!-- dir_c066a4036c22f75529f724e28fef2ca1 -->
<g id="node5" class="node">
<title>dir_c066a4036c22f75529f724e28fef2ca1</title>
<g id="a_node5"><a xlink:href="dir_c066a4036c22f75529f724e28fef2ca1.html" target="_top" xlink:title="ad5171">
<polygon fill="#a2b4d6" stroke="#404040" points="77.5,-129 24.5,-129 24.5,-110 77.5,-110 77.5,-129"/>
<text text-anchor="middle" x="51" y="-117" font-family="Helvetica,sans-Serif" font-size="10.00">ad5171</text>
</a>
</g>
</g>
<!-- dir_c066a4036c22f75529f724e28fef2ca1&#45;&gt;dir_700cf27e9c768aef409550a15111b950 -->
<g id="edge4" class="edge">
<title>dir_c066a4036c22f75529f724e28fef2ca1&#45;&gt;dir_700cf27e9c768aef409550a15111b950</title>
<g id="a_edge4"><a xlink:href="dir_000021_000324.html" target="_top">
<path fill="none" stroke="#63b8ff" d="M62.41,-109.98C73.11,-102 89.34,-89.88 102.16,-80.31"/>
<polygon fill="#63b8ff" stroke="#63b8ff" points="104.47,-82.96 110.39,-74.17 100.28,-77.35 104.47,-82.96"/>
</a>
</g>
<g id="a_edge4&#45;headlabel"><a xlink:href="dir_000021_000324.html" target="_top" xlink:title="1">
<text text-anchor="middle" x="103.28" y="-84.88" font-family="Helvetica,sans-Serif" font-size="10.00" fill="#63b8ff">1</text>
</a>
</g>
</g>
<!-- dir_c066a4036c22f75529f724e28fef2ca1&#45;&gt;dir_d44c64559bbebec7f509842c48db8b23 -->
<g id="edge5" class="edge">
<title>dir_c066a4036c22f75529f724e28fef2ca1&#45;&gt;dir_d44c64559bbebec7f509842c48db8b23</title>
<g id="a_edge5"><a xlink:href="dir_000021_000628.html" target="_top">
<path fill="none" stroke="#63b8ff" d="M77.65,-111.72C80.78,-111.07 83.95,-110.47 87,-110 189.85,-93.99 461.18,-121.1 554,-74 572.27,-64.73 568.65,-52.57 584,-39 589.91,-33.78 596.83,-28.78 603.38,-24.47"/>
<polygon fill="#63b8ff" stroke="#63b8ff" points="605.36,-27.36 611.94,-19.06 601.62,-21.44 605.36,-27.36"/>
</a>
</g>
<g id="a_edge5&#45;headlabel"><a xlink:href="dir_000021_000628.html" target="_top" xlink:title="5">
<text text-anchor="middle" x="603.84" y="-29.18" font-family="Helvetica,sans-Serif" font-size="10.00" fill="#63b8ff">5</text>
</a>
</g>
</g>
<!-- dir_e0c6af1ef83b7c365373f0310675c3a1 -->
<g id="node6" class="node">
<title>dir_e0c6af1ef83b7c365373f0310675c3a1</title>
<g id="a_node6"><a xlink:href="dir_e0c6af1ef83b7c365373f0310675c3a1.html" target="_top" xlink:title="ad525x">
<polygon fill="#a2b4d6" stroke="#404040" points="290.5,-129 237.5,-129 237.5,-110 290.5,-110 290.5,-129"/>
<text text-anchor="middle" x="264" y="-117" font-family="Helvetica,sans-Serif" font-size="10.00">ad525x</text>
</a>
</g>
</g>
<!-- dir_e0c6af1ef83b7c365373f0310675c3a1&#45;&gt;dir_d44c64559bbebec7f509842c48db8b23 -->
<g id="edge6" class="edge">
<title>dir_e0c6af1ef83b7c365373f0310675c3a1&#45;&gt;dir_d44c64559bbebec7f509842c48db8b23</title>
<g id="a_edge6"><a xlink:href="dir_000022_000628.html" target="_top">
<path fill="none" stroke="#63b8ff" d="M290.66,-111.79C293.79,-111.13 296.96,-110.51 300,-110 379.3,-96.73 606.05,-133.61 660,-74 670.44,-62.47 666.47,-53.14 660,-39 657.7,-33.97 654.02,-29.48 649.93,-25.65"/>
<polygon fill="#63b8ff" stroke="#63b8ff" points="651.82,-22.67 641.84,-19.09 647.41,-28.11 651.82,-22.67"/>
</a>
</g>
<g id="a_edge6&#45;headlabel"><a xlink:href="dir_000022_000628.html" target="_top" xlink:title="5">
<text text-anchor="middle" x="656.4" y="-20.22" font-family="Helvetica,sans-Serif" font-size="10.00" fill="#63b8ff">5</text>
</a>
</g>
</g>
<!-- dir_d9ba4b521258e5e43c5519e46c9bc81e -->
<g id="node7" class="node">
<title>dir_d9ba4b521258e5e43c5519e46c9bc81e</title>
<g id="a_node7"><a xlink:href="dir_d9ba4b521258e5e43c5519e46c9bc81e.html" target="_top" xlink:title="ad5293">
<polygon fill="#a2b4d6" stroke="#404040" points="219.5,-129 166.5,-129 166.5,-110 219.5,-110 219.5,-129"/>
<text text-anchor="middle" x="193" y="-117" font-family="Helvetica,sans-Serif" font-size="10.00">ad5293</text>
</a>
</g>
</g>
<!-- dir_d9ba4b521258e5e43c5519e46c9bc81e&#45;&gt;dir_481058711dd13ded877a88795a4a55f2 -->
<g id="edge7" class="edge">
<title>dir_d9ba4b521258e5e43c5519e46c9bc81e&#45;&gt;dir_481058711dd13ded877a88795a4a55f2</title>
<g id="a_edge7"><a xlink:href="dir_000023_000815.html" target="_top">
<path fill="none" stroke="#63b8ff" d="M219.68,-111.92C222.81,-111.23 225.97,-110.58 229,-110 335.53,-89.76 366.43,-95.22 472.24,-75.06"/>
<polygon fill="#63b8ff" stroke="#63b8ff" points="473.22,-78.43 482.37,-73.1 471.89,-71.56 473.22,-78.43"/>
</a>
</g>
<g id="a_edge7&#45;headlabel"><a xlink:href="dir_000023_000815.html" target="_top" xlink:title="1">
<text text-anchor="middle" x="470.23" y="-79.41" font-family="Helvetica,sans-Serif" font-size="10.00" fill="#63b8ff">1</text>
</a>
</g>
</g>
<!-- dir_d9ba4b521258e5e43c5519e46c9bc81e&#45;&gt;dir_d44c64559bbebec7f509842c48db8b23 -->
<g id="edge8" class="edge">
<title>dir_d9ba4b521258e5e43c5519e46c9bc81e&#45;&gt;dir_d44c64559bbebec7f509842c48db8b23</title>
<g id="a_edge8"><a xlink:href="dir_000023_000628.html" target="_top">
<path fill="none" stroke="#63b8ff" d="M219.65,-111.77C222.79,-111.1 225.96,-110.5 229,-110 272.28,-102.94 591.19,-105.2 622,-74 633.28,-62.57 633.37,-43.68 631.34,-29.47"/>
<polygon fill="#63b8ff" stroke="#63b8ff" points="634.72,-28.49 629.43,-19.31 627.84,-29.78 634.72,-28.49"/>
</a>
</g>
<g id="a_edge8&#45;headlabel"><a xlink:href="dir_000023_000628.html" target="_top" xlink:title="5">
<text text-anchor="middle" x="638.17" y="-29" font-family="Helvetica,sans-Serif" font-size="10.00" fill="#63b8ff">5</text>
</a>
</g>
</g>
<!-- dir_700cf27e9c768aef409550a15111b950&#45;&gt;dir_d44c64559bbebec7f509842c48db8b23 -->
<g id="edge9" class="edge">
<title>dir_700cf27e9c768aef409550a15111b950&#45;&gt;dir_d44c64559bbebec7f509842c48db8b23</title>
<g id="a_edge9"><a xlink:href="dir_000324_000628.html" target="_top">
<path fill="none" stroke="#63b8ff" d="M130.98,-54.83C137.4,-49.23 146.54,-42.37 156,-39 235.86,-10.53 494.5,-9.47 590.6,-10.1"/>
<polygon fill="#63b8ff" stroke="#63b8ff" points="590.68,-13.6 600.71,-10.18 590.73,-6.6 590.68,-13.6"/>
</a>
</g>
<g id="a_edge9&#45;headlabel"><a xlink:href="dir_000324_000628.html" target="_top" xlink:title="1">
<text text-anchor="middle" x="587.07" y="-13.92" font-family="Helvetica,sans-Serif" font-size="10.00" fill="#63b8ff">1</text>
</a>
</g>
</g>
</g>
</svg>
